HIERARCHY
ROOT hip
{
	OFFSET 0.000000 0.000000 0.000000 
	CHANNELS 6 Xposition Yposition Zposition Xrotation Zrotation Yrotation
	JOINT abdomen
	{
		OFFSET 0.000000 3.402643 0.000000 
		CHANNELS 3 Xrotation Zrotation Yrotation
		JOINT chest
		{
			OFFSET 0.000000 8.438565 -0.680529 
			CHANNELS 3 Xrotation Zrotation Yrotation
			JOINT neck
			{
				OFFSET 0.000000 10.207942 -0.272212 
				CHANNELS 3 Xrotation Zrotation Yrotation
				JOINT head
				{
					OFFSET 0.000000 3.130431 0.000000 
					CHANNELS 3 Xrotation Zrotation Yrotation
					End Site
					{
						OFFSET 0.000000 3.130435 0.000000 
					}
				}
			}
			JOINT lCollar
			{
				OFFSET 3.470700 6.669187 -0.816635 
				CHANNELS 3 Yrotation Zrotation Xrotation
				JOINT lShldr
				{
					OFFSET 3.198488 0.000000 0.000000 
					CHANNELS 3 Zrotation Yrotation Xrotation
					JOINT lForeArm
					{
						OFFSET 10.139888 0.000000 0.000000 
						CHANNELS 3 Yrotation Zrotation Xrotation
						JOINT lHand
						{
							OFFSET 8.370511 0.000000 0.000000 
							CHANNELS 3 Zrotation Yrotation Xrotation
							End Site
							{
								OFFSET 4.083176 0.000000 0.000000 
							}
						}
					}
				}
			}
			JOINT rCollar
			{
				OFFSET -3.470700 6.669187 -0.816635 
				CHANNELS 3 Yrotation Zrotation Xrotation
				JOINT rShldr
				{
					OFFSET -3.198488 0.000000 0.000000 
					CHANNELS 3 Zrotation Yrotation Xrotation
					JOINT rForeArm
					{
						OFFSET -10.139888 0.000000 0.000000 
						CHANNELS 3 Yrotation Zrotation Xrotation
						JOINT rHand
						{
							OFFSET -8.370511 0.000000 0.000000 
							CHANNELS 3 Zrotation Yrotation Xrotation
							End Site
							{
								OFFSET -4.083176 0.000000 0.000000 
							}
						}
					}
				}
			}
		}
	}
	JOINT lThigh
	{
		OFFSET 5.308129 -1.633274 1.361059 
		CHANNELS 3 Xrotation Zrotation Yrotation
		JOINT lShin
		{
			OFFSET -2.041588 -20.007561 0.000000 
			CHANNELS 3 Xrotation Zrotation Yrotation
			JOINT lFoot
			{
				OFFSET 0.000000 -19.190928 -1.224953 
				CHANNELS 3 Xrotation Yrotation Zrotation
				End Site
				{
					OFFSET 0.000000 -2.449906 4.627600 
				}
			}
		}
	}
	JOINT rThigh
	{
		OFFSET -5.308129 -1.633274 1.361059 
		CHANNELS 3 Xrotation Zrotation Yrotation
		JOINT rShin
		{
			OFFSET 2.041588 -20.007561 0.000000 
			CHANNELS 3 Xrotation Zrotation Yrotation
			JOINT rFoot
			{
				OFFSET 0.000000 -19.190928 -1.224953 
				CHANNELS 3 Xrotation Yrotation Zrotation
				End Site
				{
					OFFSET 0.000000 -2.449906 4.627600 
				}
			}
		}
	}
}
MOTION
Frames: 6
Frame Time: 0.033333
-0.566556 51.029015 0.460174 -0.068363 0.595703 -0.537820 0.000000 0.000000 0.000000 -13.203197 -0.190150 -1.254218 0.781455 -0.676074 -0.346587 9.248054 -0.234359 0.065683 -3.519355 9.157742 6.311733 -9.242634 14.987037 -36.198746 -19.736647 9.151421 21.986597 -4.753226 5.763851 -7.826467 3.090466 -14.082293 8.028685 8.391242 -6.395241 -36.995434 11.179224 -10.509385 52.964317 2.868623 -5.475800 -8.255616 0.614529 7.401995 8.965687 7.170480 -3.620991 -7.132778 -3.156117 0.261814 -2.531047 0.770502 -10.163353 -14.194475 7.602982 2.115420 -0.330248 -4.310557 -0.047389 -0.475659 
-0.549522 51.029015 0.449812 -0.029299 0.615234 -0.517893 0.000000 0.000000 0.000000 -13.369187 -0.152016 -1.272465 1.006114 -0.784902 -0.360597 9.228517 -0.078119 -0.010631 -3.519355 9.157742 6.311733 -9.272138 14.972454 -36.137917 -19.717617 9.141807 22.049889 -5.220422 5.786908 -7.801942 3.090466 -14.082293 8.028685 8.428335 -6.378957 -37.173725 11.277945 -10.608324 53.315174 2.217184 -5.548753 -8.294567 0.545869 7.348434 8.892940 7.177537 -3.561848 -7.081546 -3.064360 0.281379 -2.701860 0.622911 -10.235653 -14.235707 7.813568 2.143631 -0.180141 -4.203287 -0.054127 -0.446508 
-0.585766 51.038948 0.499729 -0.410164 0.341788 -0.510259 0.000000 0.000000 0.000000 -13.154463 0.285281 -1.433859 1.103726 -0.673094 -0.330790 9.160160 -0.185537 0.086056 -3.519355 9.157742 6.311733 -9.592212 14.984568 -36.196510 -19.738729 9.169787 22.010900 -5.060223 5.631912 -7.798958 3.090466 -14.082293 8.028685 8.253632 -6.395859 -36.990551 11.208644 -10.488627 54.280064 3.038793 -5.560083 -8.250145 1.024317 7.720620 9.157112 7.147501 -3.678443 -7.406166 -3.071633 0.274525 -2.609751 1.170164 -9.847748 -14.070648 7.507139 2.067200 -0.406342 -3.969918 -0.053366 -0.382225 
-0.578716 51.036114 0.489793 -0.341805 0.390618 -0.480846 0.000000 0.000000 0.000000 -13.310703 0.275595 -1.481217 0.976734 -0.770300 -0.263663 9.218750 0.058591 0.059223 -3.519355 9.157742 6.311733 -9.644926 15.005840 -36.222252 -19.770536 9.206408 21.975653 -5.371068 5.805165 -7.793274 3.090466 -14.082293 8.028685 8.262429 -6.410051 -36.919971 11.203563 -10.494299 53.604774 3.143887 -5.535249 -8.241069 0.946306 7.613287 9.060087 7.147959 -3.590983 -7.295263 -3.105433 0.282917 -2.585429 1.062447 -9.916613 -14.093492 7.575642 2.077124 -0.411767 -3.902486 -0.044321 -0.346574 
-0.554255 51.039898 0.463344 -0.039064 0.556641 -0.420301 0.000000 0.000000 0.000000 -13.691426 0.094881 -1.527021 0.781493 -0.548133 -0.402636 9.130859 0.000000 0.019531 -3.519355 9.157742 6.311733 -9.634569 15.054611 -36.218903 -19.767183 9.179107 21.929426 -5.177423 5.970490 -7.823902 3.090466 -14.082293 8.028685 8.397831 -6.515897 -36.648651 11.155736 -10.438716 53.061535 2.864631 -5.722997 -8.278320 0.565793 7.388887 8.876112 7.174688 -3.534706 -7.255935 -3.048241 0.293201 -2.686324 0.702216 -10.145156 -14.161723 7.657017 2.104440 -0.337304 -3.891941 -0.052698 -0.371228 
-0.539776 51.026649 0.473375 -0.039065 0.664062 -0.469203 0.000000 0.000000 0.000000 -13.808603 -0.066384 -1.497356 0.693579 -0.458798 -0.391152 8.994143 -0.175776 0.096428 -3.519355 9.157742 6.311733 -9.564367 15.083075 -36.331306 -19.818813 9.265783 22.135994 -5.307401 5.912754 -7.814188 3.090466 -14.082293 8.028685 8.474046 -6.489584 -36.955105 11.170363 -10.517152 53.031891 3.891538 -4.895932 -8.138315 0.565374 7.231113 8.756248 7.150026 -3.435296 -7.026096 -3.097441 0.282210 -2.775571 0.710806 -10.276396 -14.241239 7.692885 2.135697 -0.148623 -4.095951 -0.050179 -0.444636 
